
        <svg xmlns="http://www.w3.org/2000/svg" xmlns:xlink="http://www.w3.org/1999/xlink" version="1.1" width="3307.6923076923076" 
        height="1029.0275816105013" viewBox="0 0 3307.6923076923076 1029.0275816105013">
			
			<g transform="scale(15.384615384615385) translate(10, 10)">
				<defs id="SvgjsDefs1147"><linearGradient id="SvgjsLinearGradient1152"><stop id="SvgjsStop1153" stop-color="#834f2a" offset="0"></stop><stop id="SvgjsStop1154" stop-color="#dba173" offset="0.5"></stop><stop id="SvgjsStop1155" stop-color=" #834F2A" offset="1"></stop></linearGradient></defs><g id="SvgjsG1148" featureKey="v37d4h-0" transform="matrix(0.9433962387607927,0,0,0.9433962387607927,5.094339247640923,-12.264148486602267)" fill="url(#SvgjsLinearGradient1152)"><path xmlns="http://www.w3.org/2000/svg" d="M49.3,39.2l-8.2-4.9H36c0,1-0.4,1.8-1,2.5c-0.3,0.3-0.7,0.6-1.1,0.7c-0.2,0.1-0.4,0.2-0.7,0.2c-0.2,0-0.5,0.1-0.7,0.1l0,0h0  c-0.2,0-0.5,0-0.7-0.1c-0.2,0-0.4-0.1-0.7-0.2c-0.8-0.4-1.5-1-1.9-1.9c-0.2-0.4-0.3-0.9-0.3-1.4H24l-8.2,4.9l4.1,6.2l3.7-1.6  l-0.7,15.8c0,0.5,4.4,3.1,9.7,3.1c5.4,0,9.5-2.5,9.5-3.1l-0.7-15.8l3.7,1.6L49.3,39.2z"></path><g xmlns="http://www.w3.org/2000/svg"><path d="M50.3,37.5"></path><path d="M48.9,36.7l0.6-0.3h2.9c0.8,2,2.8,3.5,5.1,3.5s4.3-1.4,5.1-3.5h2.9l5.9,3.5l-2,3.1L67.2,42c-0.3-0.1-0.5-0.2-0.8-0.2   c-0.4,0-0.8,0.1-1.1,0.3c-0.6,0.4-0.9,1-0.9,1.7L65,58.8c-1.1,0.7-4,1.9-7.5,1.9c-3.6,0-6.5-1.2-7.7-1.9l0.6-14.9   c0-0.7-0.3-1.3-0.8-1.7L48.5,44l-0.7,15.6c0,0.5,4.4,3.1,9.7,3.1c5.4,0,9.5-2.5,9.5-3.1l-0.7-15.8l3.7,1.6l4.1-6.2L66,34.3H63h0h-2   c0,1.9-1.6,3.5-3.5,3.5c-1.9,0-3.5-1.6-3.5-3.5h-5.1l-2,1.2"></path></g></g><g id="SvgjsG1149" featureKey="UxBHKT-0" transform="matrix(1.1723331103248174,0,0,1.1723331103248174,93.99179343847379,19.30246148631002)" fill="#ffffff"><path d="M3.86 19.51 q-1.38 -0.77 -2.19 -2.09 t-0.81 -2.88 t0.81 -2.87 t2.18 -2.08 t2.99 -0.77 q1.74 0 3.15 0.83 t2.25 2.37 l-2.7 1.06 q-0.48 -0.82 -1.18 -1.23 t-1.52 -0.41 q-1.3 0 -2.15 0.88 t-0.85 2.22 t0.86 2.22 t2.16 0.88 q1.8 0 2.78 -1.6 l2.54 1 q-1.58 3.24 -5.32 3.24 q-1.62 0 -3 -0.77 z M23.630000000000003 10.02 q1.03 1.22 1.03 3.48 l0 6.5 l-3.04 0 l0 -6.5 q0 -1.18 -0.59 -1.7 t-1.55 -0.52 q-0.82 0 -1.48 0.65 t-0.62 2.25 l0 5.82 l-2.98 0 l0 -15.14 l2.98 0 l0 5.12 q0.54 -0.54 1.36 -0.86 t1.58 -0.32 q2.28 0 3.31 1.22 z M35.92 18.9 q-0.38 0.52 -1.31 0.93 t-2.03 0.41 q-1.7 0 -2.95 -0.76 t-1.91 -2.07 t-0.66 -2.91 t0.66 -2.91 t1.91 -2.07 t2.95 -0.76 q1.14 0 2.01 0.39 t1.33 0.99 l0 -1.14 l2.96 0 l0 11 l-2.96 0 l0 -1.1 z M35.22 12.25 q-0.82 -0.87 -2.2 -0.87 q-1.4 0 -2.21 0.87 t-0.81 2.25 q0 1.34 0.83 2.22 t2.19 0.88 q1.4 0 2.21 -0.83 t0.81 -2.27 q0 -1.38 -0.82 -2.25 z M51.05 10.02 q1.03 1.22 1.03 3.48 l0 6.5 l-3.06 0 l0 -6.5 q0 -2.22 -2.12 -2.22 q-0.82 0 -1.48 0.65 t-0.62 2.25 l0 5.82 l-2.98 0 l0 -11 l2.98 0 l0 0.98 q0.54 -0.54 1.36 -0.86 t1.58 -0.32 q2.28 0 3.31 1.22 z M57.81 19.74 q-1.37 -0.54 -2.35 -1.83 t-0.98 -3.37 t0.99 -3.36 t2.37 -1.82 t2.62 -0.54 q1.44 0 2.74 0.64 t2.13 1.88 t0.87 2.94 q0 0.52 -0.02 0.9 t-0.04 0.48 l-8.68 0 q0.24 1.16 1.2 1.58 t1.8 0.42 q1.08 0 1.72 -0.39 t1.1 -0.89 l2.32 1.34 q-1.88 2.56 -5.14 2.56 q-1.28 0 -2.65 -0.54 z M58.42 12.05 q-0.78 0.61 -0.88 1.49 l5.5 0 q-0.06 -0.52 -0.4 -1 t-0.91 -0.79 t-1.29 -0.31 q-1.24 0 -2.02 0.61 z M73.86000000000001 11.87 q-0.86 0.21 -1.58 0.99 t-0.72 2.28 l0 4.86 l-2.98 0 l0 -11 l2.98 0 l0 1.46 q0.74 -0.98 1.81 -1.33 t1.95 -0.33 l0 2.92 q-0.6 -0.06 -1.46 0.15 z M76.48000000000002 18.54 l1.56 -2.08 q0.72 0.5 1.68 0.84 t1.88 0.34 q0.68 0 1.13 -0.28 t0.45 -0.7 t-0.51 -0.59 t-0.99 -0.24 t-0.62 -0.09 q-1.2 -0.2 -2.07 -0.48 t-1.58 -1 t-0.71 -1.98 q0 -2.08 1.51 -2.78 t3.03 -0.7 q1.3 0 2.4 0.38 t2.18 1.2 l-1.56 2.04 q-0.78 -0.46 -1.54 -0.74 t-1.58 -0.28 q-0.5 0 -0.97 0.22 t-0.47 0.6 q0 0.48 0.65 0.68 t1.43 0.3 q1.4 0.24 2.24 0.5 t1.49 0.97 t0.65 2.01 q0 1.72 -1.18 2.65 t-3.34 0.93 q-3 0 -5.16 -1.72 z"></path></g>
			</g>
		</svg>
	